<svg width="38" height="38" viewBox="0 0 38 38" fill="none" xmlns="http://www.w3.org/2000/svg">
<g clip-path="url(#clip0)">
<path d="M27.3109 38C26.0843 38 24.868 37.7831 23.6787 37.3511C18.4392 35.4477 13.5759 32.3477 9.61422 28.3862C5.65259 24.4246 2.5526 19.5612 0.649337 14.3217C0.0377254 12.6379 -0.142767 10.8998 0.113054 9.1554C0.352697 7.52147 0.985608 5.93525 1.94344 4.5682C2.90549 3.19513 4.18809 2.0531 5.65252 1.2656C7.21416 0.42585 8.91867 0 10.7189 0C11.2787 0 11.7626 0.391191 11.88 0.938606L13.7438 9.63661C13.8282 10.0305 13.7071 10.4403 13.4224 10.7251L10.2376 13.9099C13.242 19.8832 18.117 24.7583 24.0904 27.7627L27.2751 24.5779C27.5599 24.2931 27.9698 24.1722 28.3636 24.2564L37.0616 26.1203C37.6091 26.2376 38.0003 26.7215 38.0003 27.2814C38.0003 29.0816 37.5744 30.7862 36.7346 32.3478C35.9471 33.8122 34.805 35.0948 33.432 36.0569C32.065 37.0147 30.4788 37.6476 28.8448 37.8873C28.3328 37.9625 27.8208 37.9999 27.3109 38ZM9.77008 2.42685C7.39555 2.68898 5.28797 3.93358 3.88841 5.9311C2.31459 8.17724 1.94759 10.9399 2.88152 13.5109C6.54065 23.5839 14.4165 31.4597 24.4895 35.1189C27.0604 36.0528 29.8232 35.6859 32.0693 34.112C34.0668 32.7124 35.3114 30.6049 35.5735 28.2303L28.4977 26.7141L25.1717 30.0401C24.8178 30.3941 24.28 30.4881 23.8271 30.2753C16.7625 26.9563 11.0441 21.2379 7.72514 14.1733C7.51236 13.7203 7.60632 13.1826 7.96025 12.8287L11.2863 9.50265L9.77008 2.42685Z" fill="white"/>
<path d="M36.8125 20.1867C36.1567 20.1867 35.625 19.655 35.625 18.9992C35.625 9.83254 28.1674 2.3749 19.0007 2.3749C18.3449 2.3749 17.8132 1.84322 17.8132 1.18745C17.8132 0.531681 18.3449 0 19.0007 0C24.0756 0 28.8467 1.97622 32.4352 5.56469C36.0237 9.15317 37.9999 13.9243 37.9999 18.9992C37.9999 19.655 37.4683 20.1867 36.8125 20.1867Z" fill="white"/>
<path d="M32.0626 20.1869C31.4069 20.1869 30.8752 19.6552 30.8752 18.9994C30.8752 12.4518 25.5483 7.1249 19.0007 7.1249C18.3449 7.1249 17.8132 6.59322 17.8132 5.93745C17.8132 5.28168 18.3449 4.75 19.0007 4.75C26.8578 4.75 33.2501 11.1423 33.2501 18.9994C33.2501 19.6552 32.7185 20.1869 32.0626 20.1869Z" fill="white"/>
<path d="M27.3128 20.1871C26.6571 20.1871 26.1254 19.6554 26.1254 18.9996C26.1254 15.071 22.9293 11.8749 19.0007 11.8749C18.3449 11.8749 17.8132 11.3432 17.8132 10.6875C17.8132 10.0317 18.3449 9.5 19.0007 9.5C24.2388 9.5 28.5003 13.7615 28.5003 18.9996C28.5003 19.6554 27.9687 20.1871 27.3128 20.1871Z" fill="white"/>
</g>
<defs>
<clipPath id="clip0">
<rect width="38" height="38" fill="white"/>
</clipPath>
</defs>
</svg>
