<svg width="52" height="52" viewBox="0 0 52 52" fill="none" xmlns="http://www.w3.org/2000/svg">
<path d="M33.7782 16.8076L26 24.5858L18.2218 16.8076C18.0343 16.6201 17.7799 16.5147 17.5147 16.5147C17.2495 16.5147 16.9951 16.6201 16.8076 16.8076C16.6201 16.9952 16.5147 17.2495 16.5147 17.5147C16.5147 17.78 16.6201 18.0343 16.8076 18.2219L24.5858 26L16.8076 33.7782C16.6201 33.9657 16.5147 34.2201 16.5147 34.4853C16.5147 34.7505 16.6201 35.0049 16.8076 35.1924C16.896 35.2878 17.0038 35.3631 17.1238 35.4133C17.2438 35.4635 17.3732 35.4874 17.5031 35.4834C17.6331 35.4794 17.7608 35.4475 17.8774 35.39C17.9941 35.3325 18.097 35.2507 18.1794 35.15L25.9576 27.3718L33.7782 35.1924C33.9657 35.3799 34.2201 35.4853 34.4853 35.4853C34.7505 35.4853 35.0048 35.3799 35.1924 35.1924C35.3799 35.0049 35.4853 34.7505 35.4853 34.4853C35.4853 34.2201 35.3799 33.9657 35.1924 33.7782L27.4142 26L35.1924 18.2218C35.3799 18.0343 35.4853 17.78 35.4853 17.5147C35.4853 17.2495 35.3799 16.9952 35.1924 16.8076C35.0048 16.6201 34.7505 16.5147 34.4853 16.5147C34.2201 16.5147 33.9657 16.6201 33.7782 16.8076Z" fill="#545454"/>
</svg>
