<svg width="77" height="71" viewBox="0 0 77 71" fill="none" xmlns="http://www.w3.org/2000/svg">
<path d="M35.3483 36.5943H31.8943V31.7658C31.8943 29.4136 29.978 27.5 27.6228 27.5C25.2673 27.5 23.3512 29.4137 23.3512 31.7658V36.4735C23.3512 36.5401 23.2956 36.5944 23.2271 36.5944H22.035C19.8713 36.5944 18.1112 38.3528 18.1112 40.5142V42.4549H14.4395C13.6089 42.4549 12.9356 43.1283 12.9356 43.9588V51.3574C12.9356 52.1878 13.6089 52.8613 14.4395 52.8613H18.1312C18.3921 56.1873 21.1862 58.8142 24.5832 58.8142H34.2977C36.4283 58.8142 38.1534 57.1579 38.2247 55.0439C38.248 54.3548 38.0939 53.6993 37.8016 53.124C38.673 52.4009 39.2239 51.3058 39.2239 50.1058C39.2239 49.2096 38.9168 48.3723 38.3984 47.7042C38.9168 47.0365 39.2239 46.1988 39.2239 45.3028C39.2239 44.4068 38.9168 43.5692 38.3984 42.9012C38.9168 42.2335 39.2239 41.3958 39.2239 40.4996C39.2239 38.3463 37.4854 36.5943 35.3483 36.5943ZM35.0662 44.382H35.3082C35.3607 44.3953 35.4143 44.4059 35.4689 44.4137C35.895 44.474 36.2162 44.8563 36.2162 45.3029C36.2162 45.7319 35.92 46.1014 35.5192 46.1833H35.0662C34.2356 46.1833 33.5623 46.8568 33.5623 47.6872C33.5623 48.5177 34.2356 49.1912 35.0662 49.1912H35.3334C35.3778 49.2015 35.4232 49.2102 35.4691 49.2167C35.895 49.2769 36.2162 49.6592 36.2162 50.1058C36.2162 50.539 35.9141 50.9116 35.5073 50.9886L34.6165 51.0282C33.8405 51.0626 33.2183 51.6824 33.181 52.4582C33.1437 53.2341 33.7034 53.9109 34.4723 54.0197C34.9137 54.0822 35.2345 54.4789 35.2188 54.9424C35.2027 55.419 34.7896 55.8065 34.2978 55.8065H24.5834C22.6733 55.8065 21.1193 54.2569 21.1193 52.3524V51.3575C21.1193 50.5271 20.446 49.8536 19.6154 49.8536H15.9436V45.4628H19.6154C20.446 45.4628 21.1193 44.7894 21.1193 43.9589V40.5144C21.1193 40.0115 21.5301 39.6024 22.0353 39.6024H23.2274C24.9544 39.6024 26.3593 38.1989 26.3593 36.4737V31.766C26.3593 31.0724 26.9263 30.508 27.6231 30.508C28.3198 30.508 28.8868 31.0724 28.8868 31.766V38.0983C28.8868 38.9288 29.5601 39.6022 30.3907 39.6022H35.3486C35.8272 39.6022 36.2164 40.005 36.2164 40.4999C36.2164 40.9189 35.9338 41.2812 35.5471 41.3741H35.0663C34.2357 41.3741 33.5624 42.0476 33.5624 42.8781C33.5624 43.7085 34.2356 44.382 35.0662 44.382Z" fill="#3F41F9"/>
<path d="M71.2442 0.410645H28.9571C25.7833 0.410645 23.2014 2.99661 23.2014 6.17542V21.1032H5.75575C2.58206 21.1032 0 23.6892 0 26.868V60.048C0 63.2267 2.58206 65.8127 5.75575 65.8127H6.66321C8.40548 65.8127 9.98143 66.9138 10.5848 68.5531L10.9723 69.6057C11.134 70.0448 11.4909 70.3836 11.9379 70.5225C12.0839 70.5677 12.2341 70.59 12.3836 70.59C12.6913 70.59 12.9957 70.4955 13.2527 70.3134L18.5251 66.5803C19.2344 66.0781 20.0681 65.8127 20.9362 65.8127H48.0427C51.2166 65.8127 53.7986 63.2267 53.7986 60.048V43.6164H56.0637C56.9319 43.6164 57.7656 43.8818 58.4747 44.384L63.7473 48.117C64.0043 48.2991 64.3085 48.3935 64.6164 48.3935C64.7657 48.3935 64.916 48.3713 65.0621 48.326C65.5091 48.1872 65.866 47.8482 66.0276 47.4091L66.4149 46.3566C67.0184 44.7177 68.5944 43.6164 70.3366 43.6164H71.2441C74.4179 43.6164 76.9998 41.0304 76.9998 37.8516V6.17542C77 2.99661 74.4179 0.410645 71.2442 0.410645ZM50.791 60.048C50.791 61.568 49.5582 62.8049 48.0429 62.8049H20.9362C19.442 62.8049 18.0073 63.2614 16.7871 64.1254L13.076 66.7531C11.8642 64.3619 9.38167 62.8049 6.66321 62.8049H5.75575C4.24041 62.8049 3.00781 61.568 3.00781 60.048V26.868C3.00781 25.3478 4.24056 24.111 5.75575 24.111H48.0427C49.5581 24.111 50.7908 25.3478 50.7908 26.868V60.048H50.791ZM38.5284 17.5813C38.5284 14.6008 40.9535 12.1759 43.9341 12.1759C45.983 12.1759 47.8317 13.3133 48.759 15.1443C49.015 15.65 49.5337 15.9687 50.1007 15.9687C50.6677 15.9687 51.1864 15.65 51.4423 15.1443C52.3696 13.3133 54.2185 12.1759 56.2674 12.1759C59.248 12.1759 61.6729 14.6008 61.6729 17.5813C61.6729 22.7972 57.3164 26.333 53.7988 28.3374V26.868C53.7988 23.6892 51.2167 21.1032 48.0429 21.1032H39.2313C38.7645 19.9723 38.5284 18.7908 38.5284 17.5813ZM73.9922 37.8516C73.9922 39.3717 72.7594 40.6086 71.2442 40.6086H70.3368C67.6185 40.6086 65.136 42.1654 63.924 44.5566L60.2129 41.9291C58.993 41.0653 57.5583 40.6086 56.0637 40.6086H53.7986V31.7456C58.0691 29.6114 64.6806 25.0925 64.6806 17.5813C64.6806 12.9421 60.9064 9.16804 56.2673 9.16804C53.8797 9.16804 51.6671 10.1597 50.1005 11.8531C48.5339 10.1596 46.3214 9.16804 43.9339 9.16804C39.2947 9.16804 35.5205 12.9422 35.5205 17.5813C35.5205 18.7825 35.6949 19.9607 36.0407 21.1032H26.209V6.17542C26.209 4.65527 27.4418 3.41846 28.957 3.41846H71.2439C72.7594 3.41846 73.9922 4.65512 73.9922 6.17542V37.8516Z" fill="#3F41F9"/>
</svg>
