<svg width="38" height="38" viewBox="0 0 38 38" fill="none" xmlns="http://www.w3.org/2000/svg">
<path d="M21.2266 26.4219C21.2266 26.8316 20.8941 27.1641 20.4844 27.1641H16.0312C15.8344 27.1641 15.6456 27.0859 15.5064 26.9467C15.3673 26.8075 15.2891 26.6187 15.2891 26.4219C15.2891 26.225 15.3673 26.0363 15.5064 25.8971C15.6456 25.7579 15.8344 25.6797 16.0312 25.6797H20.4844C20.8941 25.6797 21.2266 26.0122 21.2266 26.4219ZM38 3.71094V26.4219C37.9987 27.4057 37.6074 28.3489 36.9117 29.0445C36.216 29.7402 35.2729 30.1316 34.2891 30.1328H22.7109V33.5469H23.4531C24.4369 33.5481 25.3801 33.9395 26.0758 34.6352C26.7714 35.3308 27.1628 36.274 27.1641 37.2578C27.1641 37.6675 26.8316 38 26.4219 38H11.5781C11.3813 38 11.1925 37.9218 11.0533 37.7826C10.9141 37.6434 10.8359 37.4547 10.8359 37.2578C10.8359 36.2674 11.2219 35.3353 11.9237 34.6334C12.2674 34.288 12.6762 34.014 13.1265 33.8275C13.5768 33.641 14.0595 33.5456 14.5469 33.5469H15.2891V30.1328H3.71094C2.72712 30.1316 1.78396 29.7402 1.0883 29.0445C0.392633 28.3489 0.00125687 27.4057 0 26.4219V3.71094C0.00125687 2.72712 0.392633 1.78396 1.0883 1.0883C1.78396 0.392633 2.72712 0.00125687 3.71094 0L34.2891 0C35.2729 0.00125687 36.216 0.392633 36.9117 1.0883C37.6074 1.78396 37.9987 2.72712 38 3.71094ZM1.48438 3.71094V22.7109H4.89844V11.5781C4.89844 11.4629 4.92575 11.3537 4.97206 11.2575L4.97681 11.2456L7.94556 5.30812C8.00721 5.18485 8.10196 5.08118 8.2192 5.00873C8.33645 4.93627 8.47155 4.89789 8.60938 4.89789C8.7472 4.89789 8.8823 4.93627 8.99955 5.00873C9.11679 5.08118 9.21154 5.18485 9.27319 5.30812L12.2419 11.2456L12.2467 11.2575C12.293 11.3525 12.3203 11.4594 12.3203 11.5781V22.7109H16.0348C16.0431 21.9509 16.0645 21.1933 16.0977 20.4511C16.2391 17.3423 16.5632 15.2451 16.7236 14.3581C16.0604 13.7964 15.6154 13.0199 15.4661 12.1638C15.3168 11.3077 15.4727 10.4263 15.9066 9.67338L18.4799 5.21788C18.545 5.10492 18.6387 5.0111 18.7516 4.94587C18.8645 4.88064 18.9925 4.8463 19.1229 4.8463C19.2533 4.8463 19.3814 4.88064 19.4942 4.94587C19.6071 5.0111 19.7008 5.10492 19.7659 5.21788L22.3381 9.67338C22.7939 10.4637 22.9427 11.3944 22.7558 12.2875C22.569 13.1805 22.0596 13.9735 21.3251 14.5148C21.4795 15.4054 21.7752 17.4301 21.9046 20.4523C21.9367 21.1862 21.9569 21.9438 21.964 22.7109H25.6797V5.64062C25.6797 5.23094 26.0122 4.89844 26.4219 4.89844H32.3594C32.7691 4.89844 33.1016 5.23094 33.1016 5.64062V22.7109H36.5156V3.71094C36.515 3.12061 36.2802 2.55464 35.8628 2.13721C35.4454 1.71979 34.8794 1.485 34.2891 1.48438H3.71094C3.12061 1.485 2.55464 1.71979 2.13721 2.13721C1.71979 2.55464 1.485 3.12061 1.48438 3.71094ZM31.6172 22.7109V21.2266H30.875C30.6782 21.2266 30.4894 21.1484 30.3502 21.0092C30.211 20.87 30.1328 20.6812 30.1328 20.4844C30.1328 20.2875 30.211 20.0988 30.3502 19.9596C30.4894 19.8204 30.6782 19.7422 30.875 19.7422H31.6172V16.7734H30.875C30.6782 16.7734 30.4894 16.6952 30.3502 16.5561C30.211 16.4169 30.1328 16.2281 30.1328 16.0312C30.1328 15.8344 30.211 15.6456 30.3502 15.5064C30.4894 15.3673 30.6782 15.2891 30.875 15.2891H31.6172V13.0625H30.875C30.6782 13.0625 30.4894 12.9843 30.3502 12.8451C30.211 12.7059 30.1328 12.5172 30.1328 12.3203C30.1328 12.1235 30.211 11.9347 30.3502 11.7955C30.4894 11.6563 30.6782 11.5781 30.875 11.5781H31.6172V9.35156H30.875C30.6782 9.35156 30.4894 9.27337 30.3502 9.13418C30.211 8.99499 30.1328 8.80622 30.1328 8.60938C30.1328 8.41253 30.211 8.22376 30.3502 8.08457C30.4894 7.94538 30.6782 7.86719 30.875 7.86719H31.6172V6.38281H27.1641V22.7109H31.6172ZM18.1046 15.0955C17.8667 16.6354 17.7054 18.1862 17.6213 19.7422H20.3834C20.2647 17.5928 20.0616 16.0312 19.9239 15.1489C19.3224 15.2822 18.6972 15.2638 18.1046 15.0955ZM21.0532 10.4156L19.1235 7.07394L17.1926 10.4156C16.3329 11.9071 17.4266 13.7524 19.1235 13.7524C20.8299 13.7524 21.9094 11.8999 21.0532 10.4156ZM17.5192 22.7109H20.4808C20.4755 22.216 20.4648 21.7212 20.4487 21.2266H17.5524C17.537 21.717 17.5251 22.2134 17.5192 22.7109ZM10.8359 22.7109V12.3203H9.35156V22.7109H10.8359ZM7.86719 22.7109V12.3203H6.38281V22.7109H7.86719ZM10.3776 10.8359L8.60938 7.29956L6.84119 10.8359H10.3776ZM23.4531 35.0312H14.5469C13.9531 35.0312 13.3938 35.2628 12.9722 35.6844C12.737 35.9186 12.5572 36.2027 12.4462 36.5156H25.5526C25.3987 36.0818 25.1142 35.7062 24.7383 35.4404C24.3624 35.1746 23.9135 35.0317 23.4531 35.0312ZM21.2266 30.1328H16.7734V33.5469H21.2266V30.1328ZM36.5156 26.4219V24.1953H1.48438V26.4219C1.48438 27.6497 2.48306 28.6484 3.71094 28.6484H34.2891C34.8794 28.6478 35.4454 28.413 35.8628 27.9956C36.2802 27.5782 36.515 27.0122 36.5156 26.4219ZM24.1953 26.4219C24.1953 26.6187 24.1171 26.8075 23.9779 26.9467C23.8387 27.0859 23.65 27.1641 23.4531 27.1641C23.2563 27.1641 23.0675 27.0859 22.9283 26.9467C22.7891 26.8075 22.7109 26.6187 22.7109 26.4219C22.7109 26.225 22.7891 26.0363 22.9283 25.8971C23.0675 25.7579 23.2563 25.6797 23.4531 25.6797C23.65 25.6797 23.8387 25.7579 23.9779 25.8971C24.1171 26.0363 24.1953 26.225 24.1953 26.4219Z" fill="white"/>
</svg>
