<svg width="38" height="38" viewBox="0 0 38 38" fill="none" xmlns="http://www.w3.org/2000/svg">
<g clip-path="url(#clip0)">
<path d="M36.138 11.8394L18.3683 29.6115C18.2562 29.7234 18.1171 29.8044 17.9645 29.8466L12.1754 31.4533C12.0989 31.4655 12.0221 31.4758 11.9451 31.4842H7.24494C7.00164 31.4842 6.76831 31.3875 6.59628 31.2155C6.42424 31.0435 6.32759 30.8101 6.32759 30.5668C6.32759 30.3235 6.42424 30.0902 6.59628 29.9182C6.76831 29.7461 7.00164 29.6495 7.24494 29.6495H11.2468L12.6647 24.5468C12.7069 24.3942 12.7879 24.2551 12.8998 24.1431L12.9141 24.1288H7.24494C7.00164 24.1288 6.76831 24.0322 6.59628 23.8601C6.42424 23.6881 6.32759 23.4548 6.32759 23.2115C6.32759 22.9682 6.42424 22.7348 6.59628 22.5628C6.76831 22.3908 7.00164 22.2941 7.24494 22.2941H14.7499L20.2694 16.7746H7.24375C7.00046 16.7746 6.76713 16.678 6.59509 16.5059C6.42306 16.3339 6.32641 16.1006 6.32641 15.8573C6.32641 15.614 6.42306 15.3807 6.59509 15.2086C6.76713 15.0366 7.00046 14.9399 7.24375 14.9399H22.1029L30.6684 6.37331C31.251 5.79196 32.0404 5.46546 32.8635 5.46546C33.6865 5.46546 34.476 5.79196 35.0586 6.37331L36.1368 7.45275C36.7181 8.03516 37.0446 8.8244 37.0446 9.64725C37.0446 10.4701 36.7181 11.2593 36.1368 11.8418L36.138 11.8394ZM15.96 28.5L14.0125 26.5525L13.2644 29.2481L15.96 28.5ZM32.3903 12.996L29.5165 10.1223L14.8438 24.7914L17.7175 27.6652L32.3903 12.996ZM34.8424 8.74831L33.763 7.66888C33.5248 7.43139 33.2022 7.29803 32.8658 7.29803C32.5295 7.29803 32.2069 7.43139 31.9687 7.66888L30.8133 8.82431L33.687 11.6981L34.8424 10.5426C35.0796 10.3045 35.2127 9.98212 35.2127 9.64606C35.2127 9.31 35.0796 8.98763 34.8424 8.7495V8.74831ZM28.1616 4.90081V2.0045C28.1616 1.95935 28.1437 1.91604 28.1119 1.884C28.0801 1.85197 28.0369 1.83381 27.9918 1.8335H9.50356V7.42663C9.50294 7.95806 9.29155 8.46755 8.91576 8.84333C8.53998 9.21911 8.0305 9.4305 7.49906 9.43112H1.90594V35.9931C1.90594 36.0881 1.98313 36.1641 2.07694 36.1641H27.9906C28.0844 36.1641 28.1604 36.0869 28.1604 35.9931V21.9901C28.1604 21.7468 28.257 21.5135 28.4291 21.3415C28.6011 21.1694 28.8344 21.0728 29.0777 21.0728C29.321 21.0728 29.5543 21.1694 29.7264 21.3415C29.8984 21.5135 29.9951 21.7468 29.9951 21.9901V35.9943C29.9948 36.526 29.7835 37.0357 29.4077 37.4118C29.0319 37.7878 28.5222 37.9994 27.9906 38H2.07694C0.971376 38 0.0712509 37.0999 0.0712509 35.9931V8.51437C0.0712509 8.27213 0.167438 8.03938 0.339626 7.86719L7.93844 0.268375C8.1102 0.0968682 8.3429 0.000372945 8.58563 0L27.9894 0C28.5212 0.000629402 29.0311 0.212345 29.4069 0.588639C29.7828 0.964933 29.9939 1.47503 29.9939 2.00688V4.89962C29.9939 5.14292 29.8972 5.37625 29.7252 5.54828C29.5532 5.72032 29.3198 5.81697 29.0765 5.81697C28.8332 5.81697 28.5999 5.72032 28.4279 5.54828C28.2558 5.37625 28.1592 5.14292 28.1592 4.89962L28.1616 4.90081ZM7.67125 3.13025L3.20269 7.59762H7.49906C7.59406 7.59762 7.67006 7.52163 7.67006 7.42781L7.67125 3.13025Z" fill="white"/>
</g>
<defs>
<clipPath id="clip0">
<rect width="38" height="38" fill="white"/>
</clipPath>
</defs>
</svg>
