<svg width="38" height="38" viewBox="0 0 38 38" fill="none" xmlns="http://www.w3.org/2000/svg">
<path d="M31.0472 24.1474C31.0472 25.0974 30.2729 25.8729 29.3217 25.8729C28.3717 25.8729 27.5975 25.0986 27.5975 24.1474C27.5975 23.1974 28.3717 22.4232 29.3217 22.4232C30.2729 22.4232 31.0472 23.1974 31.0472 24.1474ZM37.9466 21.561V26.735C37.9466 27.8584 37.2222 28.806 36.2211 29.1634V34.4965C36.2202 35.4111 35.8564 36.288 35.2097 36.9347C34.563 37.5815 33.6861 37.9452 32.7714 37.9462H3.44969C2.53506 37.9452 1.65817 37.5815 1.01143 36.9347C0.364694 36.288 0.000943075 35.4111 0 34.4965L0 13.7984C0.000943075 12.8837 0.364694 12.0068 1.01143 11.3601C1.65817 10.7134 2.53506 10.3496 3.44969 10.3487H6.4315L23.4104 0.463922C23.7983 0.236621 24.2277 0.0887979 24.6733 0.0290628C25.119 -0.0306723 25.5721 -0.00112473 26.0063 0.115984C26.4437 0.232296 26.8536 0.434593 27.2121 0.711064C27.5705 0.987536 27.8703 1.33264 28.0939 1.72623L33.0457 10.3772C33.908 10.4443 34.7134 10.8335 35.3018 11.4674C35.8902 12.1013 36.2184 12.9335 36.2211 13.7984V19.1326C37.2234 19.4889 37.9466 20.4377 37.9466 21.561ZM29.1626 7.06523L23.5256 10.3475H31.0424L29.1626 7.06523ZM27.455 4.08461L16.6927 10.3499H20.0972L28.3064 5.57136L27.455 4.08461ZM9.85981 10.3487H13.2644L26.5976 2.58598L26.5964 2.58361C26.4863 2.38936 26.3387 2.21885 26.1623 2.08192C25.9859 1.945 25.7841 1.84438 25.5686 1.78586C25.3531 1.72735 25.1281 1.7121 24.9067 1.741C24.6852 1.7699 24.4717 1.84237 24.2784 1.95423L9.85981 10.3487ZM34.4969 29.3225H29.3217C27.9498 29.321 26.6345 28.7752 25.6645 27.805C24.6945 26.8348 24.1491 25.5194 24.1478 24.1474C24.1494 22.7757 24.695 21.4606 25.665 20.4906C26.6349 19.5207 27.95 18.9751 29.3217 18.9735H34.4969V13.7984C34.4969 12.8484 33.7226 12.0741 32.7714 12.0741H3.44969C2.49969 12.0741 1.72544 12.8484 1.72544 13.7984V34.4965C1.72544 35.4465 2.4985 36.2219 3.44969 36.2219H32.7714C33.7214 36.2219 34.4969 35.4477 34.4969 34.4965V29.3225ZM36.2211 26.735V21.561C36.2211 21.0849 35.8352 20.6977 35.359 20.6977H29.3217C28.4071 20.6987 27.5302 21.0624 26.8835 21.7092C26.2368 22.3559 25.873 23.2328 25.8721 24.1474C25.873 25.062 26.2368 25.9389 26.8835 26.5857C27.5302 27.2324 28.4071 27.5962 29.3217 27.5971H35.359C35.834 27.5971 36.2211 27.2112 36.2211 26.735Z" fill="white"/>
</svg>
